<?xml version="1.0" encoding="iso-8859-1"?>
<!-- Generator: Adobe Illustrator 18.0.0, SVG Export Plug-In . SVG Version: 6.00 Build 0)  -->
<!DOCTYPE svg PUBLIC "-//W3C//DTD SVG 1.1//EN" "http://www.w3.org/Graphics/SVG/1.1/DTD/svg11.dtd">
<svg version="1.1" id="Capa_1" xmlns="http://www.w3.org/2000/svg" xmlns:xlink="http://www.w3.org/1999/xlink" x="0px" y="0px"
	 viewBox="0 0 355.852 355.852" style="enable-background:new 0 0 355.852 355.852;" xml:space="preserve">
<g>
	<path d="M184.174,178.238v-73.614h-16.662v73.614c-8.415,3.324-14.378,11.519-14.378,21.118c0,9.601,5.963,17.796,14.378,21.12
		v18.029h16.662v-18.029c8.436-3.324,14.398-11.519,14.398-21.12C198.572,189.757,192.609,181.563,184.174,178.238z"/>
	<path d="M301.143,93.878l9.227,9.23l26.13-26.145l-38.443-38.446l-26.143,26.141l9.223,9.228l-5.227,5.242
		c-23.756-19.79-53.428-32.688-85.927-35.618v-6.536h13.055V0H148.66v36.974h13.041v6.536
		c-79.677,7.172-142.35,74.322-142.35,155.847c0,86.291,70.21,156.495,156.487,156.495c86.304,0,156.505-70.204,156.505-156.495
		c0-38.108-13.701-73.077-36.441-100.253L301.143,93.878z M175.839,312.357c-62.307,0-112.985-50.693-112.985-113
		c0-62.303,50.679-112.993,112.985-112.993c62.318,0,112.994,50.69,112.994,112.993
		C288.833,261.663,238.157,312.357,175.839,312.357z"/>
</g>
<g>
</g>
<g>
</g>
<g>
</g>
<g>
</g>
<g>
</g>
<g>
</g>
<g>
</g>
<g>
</g>
<g>
</g>
<g>
</g>
<g>
</g>
<g>
</g>
<g>
</g>
<g>
</g>
<g>
</g>
</svg>
